<?xml version="1.0" standalone="no"?><!DOCTYPE svg PUBLIC "-//W3C//DTD SVG 1.1//EN" "http://www.w3.org/Graphics/SVG/1.1/DTD/svg11.dtd"><svg t="1756920571216" class="icon" viewBox="0 0 1024 1024" version="1.1" xmlns="http://www.w3.org/2000/svg" p-id="21772" xmlns:xlink="http://www.w3.org/1999/xlink" width="200" height="200"><path d="M130.58 145.83c-1.17-11.8 10.1-20.94 21.42-17.4 26.26 8.21 53.51 17.45 81.59 27.87a1637.24 1637.24 0 0 1 78.8 31.59c5.97 2.58 12.88 1.38 17.68-3.01 21.77-19.92 90.72-73.04 207.11-73.04 113.11 0 174.54 36.31 195.38 51.59 5.27 3.86 12.29 4.3 17.97 1.08 33.6-19.05 144.24-80.53 175.55-82.32 37.06-2.12 18 145.06-10.59 200.12-21.45 41.31-42.01 68.31-50.94 79.22-2.87 3.51-4.2 8.03-3.64 12.53 3.5 28.07 11.26 133.68-58.01 202.95-57.68 57.68-132.77 66.76-170.67 67.28-11.4 0.16-19.24 11.5-15.33 22.21 14.21 38.88 40.59 118.42 40.59 173.09 0 74.82-63.13 120-119.8 120-52.04 0-115.81-30.95-125.89-63.33-1.79-5.75-6.54-10.09-12.44-11.31-20.88-4.32-60.33-11.49-82.11-29.83-26.82-22.59-55.06-77.65-55.06-101.65 0-11.56 6.55-15.26 13.34-15.99 7.85-0.84 15.16 4.12 17.43 11.68 7.21 24 31.64 83.49 95.93 80.34 6.67-0.33 12.39-4.77 14.63-11.06 16.21-45.57 69.65-112.37 84.77-130.74 2.59-3.14 3.92-7.13 3.75-11.19l-0.49-11.51c-0.36-8.75-7.48-15.71-16.23-15.85-44.49-0.74-172.93-11.12-234.32-103.2-36.71-55.06-23.08-130.63-16.69-157.02 1.41-5.8-0.4-11.9-4.74-16-14.89-14.03-48.79-50.9-66.1-109.33-14.19-47.92-20.3-91.78-22.89-117.77z" p-id="21773"></path></svg>