<?xml version="1.0" standalone="no"?><!DOCTYPE svg PUBLIC "-//W3C//DTD SVG 1.1//EN" "http://www.w3.org/Graphics/SVG/1.1/DTD/svg11.dtd"><svg t="1756920596064" class="icon" viewBox="0 0 1024 1024" version="1.1" xmlns="http://www.w3.org/2000/svg" p-id="27278" xmlns:xlink="http://www.w3.org/1999/xlink" width="200" height="200"><path d="M785.06666667 533.33333333m-68.26666667 0a68.26666667 68.26666667 0 1 0 136.53333333 0 68.26666667 68.26666667 0 1 0-136.53333333 0Z" fill="#F93B5F" p-id="27279"></path><path d="M238.93333333 533.33333333m-68.26666666 0a68.26666667 68.26666667 0 1 0 136.53333333 0 68.26666667 68.26666667 0 1 0-136.53333333 0Z" fill="#F93B5F" p-id="27280"></path><path d="M512 802.7136c113.11786667 0 204.8 29.2864 204.8-76.97066667S625.11786667 533.33333333 512 533.33333333s-204.8 86.15253333-204.8 192.4096c0 106.25706667 91.68213333 76.97066667 204.8 76.97066667z" fill="#FF7E96" p-id="27281"></path><path d="M614.4 328.53333333m-102.4 0a102.4 102.4 0 1 0 204.8 0 102.4 102.4 0 1 0-204.8 0Z" fill="#F93B5F" p-id="27282"></path><path d="M375.46666667 328.53333333m-102.4 0a102.4 102.4 0 1 0 204.8 0 102.4 102.4 0 1 0-204.8 0Z" fill="#F93B5F" p-id="27283"></path><path d="M497.22026667 131.24266666C440.32 96.08533333 374.44266667 89.53173333 301.39733333 111.47946666c-107.48586667 32.29013333-165.71733333 136.63573333-150.08426666 245.1456l1.26293333 7.71413334-5.87093333 2.18453333c-9.216 3.75466667-18.19306667 8.15786667-26.96533334 13.48266667l-8.66986666 5.59786666c-42.42773333 29.2864-68.13013333 74.6496-68.13013334 137.28426667 0 78.0288 42.496 149.94773333 139.264 184.32l4.53973334 1.536-0.7168 8.53333333c-3.75466667 47.06986667-1.46773333 92.50133333 12.3904 155.57973334a25.6 25.6 0 1 0 50.00533333-10.99093334c-11.70773333-53.38453333-14.336-91.92106667-12.04906667-130.83306666l1.77493334-23.1424c0.4096-5.08586667 0.54613333-8.66986667 0.44373333-12.11733334-0.512-14.91626667-6.8608-27.8528-22.6304-31.6416l-1.2288-0.23893333-7.95306667-2.38933333c-77.312-24.7808-110.25066667-75.264-112.50346666-132.23253334l-0.13653334-6.38293333c0-45.1584 16.96426667-75.09333333 46.01173334-95.1296 14.98453333-10.3424 59.2896-25.83893333 63.0784-30.9248a25.6 25.6 0 0 0 4.096-22.1184c-26.07786667-93.5936 18.8416-187.15306667 108.78293333-214.18666667 65.09226667-19.5584 119.808-11.84426667 166.74133333 22.76693334a25.6 25.6 0 0 0 28.39893334 1.36533333c59.05066667-35.5328 112.29866667-43.28106667 161.62133333-24.71253333 94.75413333 35.70346667 145.06666667 115.02933333 109.02186667 212.75306666a25.6 25.6 0 0 0 1.46773333 20.92373334c4.8128 9.07946667 63.1808 25.83893333 80.9984 35.66933333 36.79573333 20.34346667 57.58293333 48.91306667 57.58293333 89.7024 0 64.512-31.9488 111.104-99.25973333 142.57493333l-5.97333333 2.6624-1.70666667 0.34133334c-20.13866667 4.43733333-32.768 11.81013333-34.47466667 29.5936l-0.2048 4.3008 0.37546667 3.92533333c0.85333333 6.82666667 2.79893333 20.30933333 3.54986667 26.58986667a426.66666667 426.66666667 0 0 1 3.00373333 75.29813333c-3.51573333 58.02666667-20.82133333 85.67466667-56.25173333 83.2512l-19.38773334-1.16053333a2520.50773333 2520.50773333 0 0 0-124.27946666-2.59413334c-36.864 0-75.6736 0.44373333-115.43893334 1.19466667l-97.34826666 2.49173333a25.6 25.6 0 0 0 0 51.2l68.53973333-1.8432 59.15306667-1.16053333c19.456-0.3072 38.6048-0.512 57.344-0.6144l27.71626666-0.06826667c57.00266667 0 104.72106667 1.16053333 140.15146667 3.61813334 72.36266667 5.0176 105.91573333-48.57173333 110.8992-131.24266667a475.47733333 475.47733333 0 0 0-3.2768-84.44586667l-1.26293333-10.37653333 0.88746666-0.27306667c87.82506667-37.888 135.09973333-100.2496 138.24-184.18346666l0.2048-9.07946667c0-61.57653333-32.22186667-105.8816-84.03626666-134.51946667a250.23146667 250.23146667 0 0 0-42.7008-18.46613333l-8.12373334-2.52586667 1.36533334-5.80266666c24.61013333-110.08-37.34186667-200.43093333-141.07306667-242.61973334l-7.68-3.00373333c-59.32373333-22.35733333-122.29973333-15.94026667-187.392 18.19306667l-4.23253333 2.32106666-2.048-1.3312z" fill="#1F1E28" p-id="27284"></path></svg>