<?xml version="1.0" standalone="no"?><!DOCTYPE svg PUBLIC "-//W3C//DTD SVG 1.1//EN" "http://www.w3.org/Graphics/SVG/1.1/DTD/svg11.dtd"><svg t="1756919504433" class="icon" viewBox="0 0 1024 1024" version="1.1" xmlns="http://www.w3.org/2000/svg" p-id="16966" xmlns:xlink="http://www.w3.org/1999/xlink" width="200" height="200"><path d="M512 855.375448c2.401103-1.412414 4.908138-2.577655 7.503448-3.531034l161.103449-58.579862c26.429793-9.604414 52.082759 8.333241 52.082758 36.440276v141.417931c0 27.912828-25.688276 46.027034-52.082758 36.440275l-161.103449-58.579862a47.315862 47.315862 0 0 1-7.503448-3.531034 47.315862 47.315862 0 0 1-7.503448 3.531034l-161.103449 58.579862c-26.394483 9.586759-52.082759-8.527448-52.082758-36.440275v-141.417931c0-28.107034 25.652966-46.04469 52.082758-36.440276l161.103449 58.579862c2.59531 0.953379 5.12 2.118621 7.503448 3.531034z m-26.306207-297.401379a52.965517 52.965517 0 1 1 54.678069-1.235862c7.168 20.427034 33.897931 51.16469 65.006345 55.755034 21.963034 3.230897 42.319448-3.054345 60.733793-15.94262 5.473103-3.813517 10.27531-7.909517 14.37131-11.952552 2.295172-2.295172 3.742897-3.884138 4.201931-4.466759a26.482759 26.482759 0 1 1 41.330759 33.121104c-5.773241 7.20331-15.677793 17.001931-29.537103 26.69462-28.672 20.073931-62.022621 30.366897-98.816 24.946759-33.721379-4.978759-62.905379-25.158621-83.049931-49.487448-20.162207 26.782897-51.2 49.752276-87.48138 55.084138-36.793379 5.437793-70.144-4.872828-98.816-24.929104-13.85931-9.69269-23.763862-19.49131-29.537103-26.69462a26.482759 26.482759 0 0 1 41.313103-33.121104c0.47669 0.582621 1.906759 2.189241 4.219586 4.466759 4.096 4.06069 8.915862 8.121379 14.353656 11.952552 18.432 12.888276 38.788414 19.173517 60.733793 15.94262 33.438897-4.943448 61.810759-40.024276 66.295172-60.133517zM700.910345 9.604414c61.40469 8.545103 135.379862 115.888552 163.539862 216.011034C946.070069 307.305931 997.517241 452.413793 997.517241 600.275862c0 156.424828-70.267586 247.543172-174.185931 314.88a26.482759 26.482759 0 0 1-28.813241-44.455724C879.474759 815.65131 944.551724 740.528552 944.551724 600.275862c0-135.768276-44.314483-272.41931-116.012138-334.565517-5.261241-4.555034-10.593103-9.286621-12.411586-16.083862-21.998345-81.637517-91.136-183.190069-122.526897-187.550897-13.329655-1.853793-33.138759 20.656552-52.965517 64.723862a583.732966 583.732966 0 0 0-14.088827 34.551173c-2.718897 7.238621-10.328276 28.318897-10.522483 28.848551a26.482759 26.482759 0 0 1-27.436138 17.196138c-29.713655-2.913103-43.502345-4.360828-76.588138-4.360827-33.668414 0-47.951448 1.483034-78.124138 4.519724a26.482759 26.482759 0 0 1-27.400828-16.984276c-0.529655-1.377103-7.927172-21.327448-10.540137-28.12469a592.896 592.896 0 0 0-13.718069-33.156413c-19.773793-43.502345-39.282759-65.641931-52.224-63.841104-30.649379 4.254897-99.328 103.406345-121.520552 183.966897-1.871448 6.761931-7.909517 10.804966-12.429242 15.977931C133.490759 336.843034 79.448276 460.923586 79.448276 600.275862c0 143.889655 64.776828 215.58731 151.092965 271.112828a26.482759 26.482759 0 0 1-28.636689 44.544C96.609103 848.225103 26.482759 760.408276 26.482759 600.275862c0-151.410759 55.437241-288.432552 133.790896-375.119448C188.610207 126.675862 262.355862 21.362759 322.701241 12.976552c46.291862-6.426483 78.565517 30.17269 107.731862 94.402207 5.08469 11.193379 9.886897 22.863448 14.953931 36.104827 0.882759 2.242207 2.189241 5.755586 3.619311 9.551448C474.835862 151.057655 484.069517 150.068966 512 150.068966c27.294897 0 35.945931 0.935724 61.228138 2.824827 1.465379-4.007724 2.824828-7.768276 3.742896-10.151724 5.15531-13.771034 10.098759-25.953103 15.36-37.676138C621.497379 40.253793 654.159448 3.124966 700.910345 9.622069z" fill="#9B9B9B" p-id="16967"></path></svg>